<?xml version="1.0" encoding="UTF-8"?>
<svg version="1.1" xmlns="http://www.w3.org/2000/svg" width="400" height="400">
<path d="M0 0 C7.57605915 16.52746442 11.39994382 34.93564824 15.3125 52.625 C15.55944107 53.73686172 15.55944107 53.73686172 15.81137085 54.8711853 C18.88204066 68.77602157 21.8635669 82.79890281 23.125 97 C23.24174072 98.24789307 23.24174072 98.24789307 23.36083984 99.52099609 C27.60382323 146.24718423 24.79286183 197.92087047 2 240 C15.98992364 242.32849879 30.30903397 243.1298601 42.234375 234.71875 C47.06283155 231.14345974 51.66467703 227.33904948 56.125 223.3125 C57.07375 222.549375 58.0225 221.78625 59 221 C59.99 221.33 60.98 221.66 62 222 C61.77673764 225.76163249 61.07200748 226.92831067 58.34765625 229.640625 C57.26290217 230.52322637 56.16740931 231.3927649 55.0625 232.25 C54.51142578 232.69601562 53.96035156 233.14203125 53.39257812 233.6015625 C51.3298028 235.25579302 49.37178816 236.81410592 47 238 C47.33 240.31 47.66 242.62 48 245 C41.25258362 247.97680134 34.92733158 248.09878573 27.69140625 248 C25.87434886 247.99884201 24.0572884 248.00022215 22.24023438 248.00390625 C19.39744302 248.00832777 16.5579504 247.99991807 13.71557617 247.94873047 C2.98801639 247.33248324 2.98801639 247.33248324 -6.70361328 250.89892578 C-8.48269578 253.19024744 -9.75605142 255.38689384 -11 258 C-25.76843488 276.62343075 -47.73685811 288.32329739 -71.27685547 291.28662109 C-86.65977975 292.63030007 -99.15889618 287.93337043 -111 278 C-111.66 277.34 -112.32 276.68 -113 276 C-119.92627277 276.37587649 -126.59662451 279.13134571 -132.9375 281.75 C-133.81067871 282.10562012 -134.68385742 282.46124023 -135.58349609 282.82763672 C-141.97771044 285.47552932 -148.0675339 288.42467402 -154 292 C-154.74121094 292.43441406 -155.48242188 292.86882812 -156.24609375 293.31640625 C-158.84504824 294.85474187 -161.42132242 296.42788195 -164 298 C-165.41380864 298.84807959 -166.82789544 299.69569558 -168.2421875 300.54296875 C-178.15911013 306.49261604 -178.15911013 306.49261604 -187.625 313.125 C-193.79198738 317.76939267 -200.51248666 321.36494956 -207.28125 325.04248047 C-208.78302288 325.87912155 -210.25055237 326.77663987 -211.7109375 327.68359375 C-213.92118023 328.95467191 -215.7960606 329.61379349 -218.25 330.25 C-223.00190705 331.72801791 -226.29200268 334.28030335 -230.0546875 337.4765625 C-235.49330827 341.73572335 -243.48582813 340.57967019 -250 340 C-255.14543151 339.30126408 -260.26075302 338.45661656 -265.375 337.5625 C-266.03804138 337.4472699 -266.70108276 337.33203979 -267.38421631 337.21331787 C-278.78850426 335.21149574 -278.78850426 335.21149574 -280 334 C-280.04092937 331.66702567 -280.04241723 329.33294775 -280 327 C-276.09418404 326.06378637 -272.56358826 325.93297371 -268.5546875 326.04296875 C-267.31203125 326.06423828 -266.069375 326.08550781 -264.7890625 326.10742188 C-262.2028468 326.16033347 -259.61684523 326.22521907 -257.03125 326.30273438 C-246.65305021 326.44717324 -237.19557091 324.82964242 -229 318 C-227.24087556 315.72493124 -225.63785023 313.36578366 -224 311 C-223.34 311 -222.68 311 -222 311 C-221.67 312.32 -221.34 313.64 -221 315 C-215.19721035 312.51309015 -209.52329713 309.81631097 -203.875 307 C-203.20662109 306.66806641 -202.53824219 306.33613281 -201.84960938 305.99414062 C-197.47832693 303.80203938 -193.22686557 301.45926724 -189 299 C-190.55847656 298.29037109 -190.55847656 298.29037109 -192.1484375 297.56640625 C-200.96041109 293.43820774 -208.28499887 289.20892416 -215 282 C-215.76699219 281.17886719 -216.53398437 280.35773438 -217.32421875 279.51171875 C-229.6603842 265.37434748 -236.28224023 247.6751038 -240.75 229.6875 C-240.94875732 228.90745605 -241.14751465 228.12741211 -241.35229492 227.32373047 C-244.91433922 212.08312773 -245.37788953 196.33282794 -245.3125 180.75 C-245.31126129 179.49020325 -245.31126129 179.49020325 -245.30999756 178.20495605 C-245.23031753 142.8454763 -245.23031753 142.8454763 -240 135 C-235.65701618 135.5675947 -232.16479987 136.63105929 -228.203125 138.484375 C-227.09195313 139.00104736 -225.98078125 139.51771973 -224.8359375 140.05004883 C-223.65257812 140.61103271 -222.46921875 141.1720166 -221.25 141.75 C-220.00788165 142.33437551 -218.76569306 142.91860176 -217.5234375 143.50268555 C-213.67429057 145.318536 -209.83558556 147.15570332 -206 149 C-205.39051514 149.2927179 -204.78103027 149.58543579 -204.15307617 149.88702393 C-200.09139956 151.84080589 -196.04285902 153.82010891 -192 155.8125 C-190.97036133 156.31426758 -189.94072266 156.81603516 -188.87988281 157.33300781 C-182.44575839 160.54275139 -176.50751106 164.1811699 -170.59375 168.2722168 C-168.43628951 169.70937304 -166.34738995 170.91384772 -164 172 C-163.73372803 171.16976318 -163.46745605 170.33952637 -163.19311523 169.48413086 C-153.47835541 139.34893334 -153.47835541 139.34893334 -147 127 C-146.23153082 125.46170691 -145.46471842 123.92258547 -144.69921875 122.3828125 C-137.12985048 107.35306293 -128.23603872 94.63964269 -116.5234375 82.5703125 C-115.02521798 81.02599392 -113.54380798 79.46677231 -112.0625 77.90625 C-105.47586292 71.05605959 -98.43018429 65.09818428 -90.84179688 59.38867188 C-88.99404465 57.99550981 -87.1603837 56.58533171 -85.328125 55.171875 C-75.09549385 47.32989731 -64.48775756 40.06618894 -53.79052734 32.87597656 C-51.11330447 31.07617074 -48.44120136 29.2689712 -45.76953125 27.4609375 C-33.4295547 19.14235117 -20.87100053 11.20263951 -8.21044922 3.38183594 C-2.80070671 0 -2.80070671 0 0 0 Z " fill="#B6E163" transform="translate(309,30)"/>
<path d="M0 0 C4.34298382 0.5675947 7.83520013 1.63105929 11.796875 3.484375 C12.90804687 4.00104736 14.01921875 4.51771973 15.1640625 5.05004883 C16.34742188 5.61103271 17.53078125 6.1720166 18.75 6.75 C19.99211835 7.33437551 21.23430694 7.91860176 22.4765625 8.50268555 C26.32570943 10.318536 30.16441444 12.15570332 34 14 C34.91422729 14.43907684 34.91422729 14.43907684 35.84692383 14.88702393 C39.90860044 16.84080589 43.95714098 18.82010891 48 20.8125 C49.02963867 21.31426758 50.05927734 21.81603516 51.12011719 22.33300781 C57.51076699 25.52106353 63.42465197 29.12634856 69.30859375 33.17456055 C71.97434444 35.03132683 71.97434444 35.03132683 74.79296875 36.60473633 C77 38 77 38 77.875 40.125 C77.91625 40.74375 77.9575 41.3625 78 42 C77.67 42.33 77.34 42.66 77 43 C76.77894086 47.37734259 76.81421473 51.76069036 76.81469727 56.14306641 C76.81254306 58.33126233 76.79448879 60.51892687 76.77539062 62.70703125 C76.32612159 77.21434897 76.32612159 77.21434897 82 90 C82.7734375 92.48046875 82.7734375 92.48046875 83.375 95.1875 C84.58669415 100.00205068 86.34608954 103.89173548 88.9140625 108.125 C90 110 90 110 91 113 C91.66 113 92.32 113 93 113 C93.33 113.66 93.66 114.32 94 115 C94.99 115.33 95.98 115.66 97 116 C97 116.66 97 117.32 97 118 C97.66 118 98.32 118 99 118 C99 118.66 99 119.32 99 120 C99.84304687 120.41378906 99.84304687 120.41378906 100.703125 120.8359375 C103.08618794 122.04368028 105.4179008 123.32176809 107.75 124.625 C108.94882812 125.29402344 108.94882812 125.29402344 110.171875 125.9765625 C110.77515625 126.31429687 111.3784375 126.65203125 112 127 C112 127.66 112 128.32 112 129 C112.70125 129.0825 113.4025 129.165 114.125 129.25 C118.89165071 130.4934741 122.10015107 132.68022158 124.875 136.75 C125.24625 137.4925 125.6175 138.235 126 139 C125.34 139 124.68 139 124 139 C124 139.66 124 140.32 124 141 C122.92105469 141.32871094 121.84210938 141.65742188 120.73046875 141.99609375 C106.67605865 146.40581737 92.23441118 151.70022741 80.2409668 160.45458984 C77.72790919 162.18763861 75.13524357 163.68053732 72.48046875 165.1875 C66.21040091 168.81781459 60.23439466 172.79645099 54.25 176.875 C30.10543504 193.12560912 30.10543504 193.12560912 19.02734375 196.1875 C15.51769354 197.59406501 12.80446358 200.04782126 9.9453125 202.4765625 C4.50669173 206.73572335 -3.48582813 205.57967019 -10 205 C-15.14543151 204.30126408 -20.26075302 203.45661656 -25.375 202.5625 C-26.03804138 202.4472699 -26.70108276 202.33203979 -27.38421631 202.21331787 C-38.78850426 200.21149574 -38.78850426 200.21149574 -40 199 C-40.04092937 196.66702567 -40.04241723 194.33294775 -40 192 C-36.09418404 191.06378637 -32.56358826 190.93297371 -28.5546875 191.04296875 C-26.69070312 191.07487305 -26.69070312 191.07487305 -24.7890625 191.10742188 C-22.2028468 191.16033347 -19.61684523 191.22521907 -17.03125 191.30273438 C-6.65305021 191.44717324 2.80442909 189.82964242 11 183 C12.75912444 180.72493124 14.36214977 178.36578366 16 176 C16.66 176 17.32 176 18 176 C18.33 177.32 18.66 178.64 19 180 C24.80278965 177.51309015 30.47670287 174.81631097 36.125 172 C37.12756836 171.50209961 37.12756836 171.50209961 38.15039062 170.99414062 C42.52167307 168.80203938 46.77313443 166.45926724 51 164 C49.44152344 163.29037109 49.44152344 163.29037109 47.8515625 162.56640625 C39.03958891 158.43820774 31.71500113 154.20892416 25 147 C24.23300781 146.17886719 23.46601562 145.35773438 22.67578125 144.51171875 C10.3396158 130.37434748 3.71775977 112.6751038 -0.75 94.6875 C-0.94875732 93.90745605 -1.14751465 93.12741211 -1.35229492 92.32373047 C-4.91433922 77.08312773 -5.37788953 61.33282794 -5.3125 45.75 C-5.31126129 44.49020325 -5.31126129 44.49020325 -5.30999756 43.20495605 C-5.23031753 7.8454763 -5.23031753 7.8454763 0 0 Z " fill="#80BE43" transform="translate(69,165)"/>
<path d="M0 0 C3.46566979 2.61850606 6.84032437 5.18064873 8.8125 9.125 C8.1525 9.125 7.4925 9.125 6.8125 9.125 C6.8125 9.785 6.8125 10.445 6.8125 11.125 C5.73355469 11.45371094 4.65460938 11.78242188 3.54296875 12.12109375 C-10.51144135 16.53081737 -24.95308882 21.82522741 -36.9465332 30.57958984 C-39.45959081 32.31263861 -42.05225643 33.80553732 -44.70703125 35.3125 C-50.97709909 38.94281459 -56.95310534 42.92145099 -62.9375 47 C-87.08206496 63.25060912 -87.08206496 63.25060912 -98.16015625 66.3125 C-101.66980646 67.71906501 -104.38303642 70.17282126 -107.2421875 72.6015625 C-112.68080827 76.86072335 -120.67332813 75.70467019 -127.1875 75.125 C-132.33293151 74.42626408 -137.44825302 73.58161656 -142.5625 72.6875 C-143.22554138 72.5722699 -143.88858276 72.45703979 -144.57171631 72.33831787 C-155.97600426 70.33649574 -155.97600426 70.33649574 -157.1875 69.125 C-157.22842937 66.79202567 -157.22991723 64.45794775 -157.1875 62.125 C-153.28168404 61.18878637 -149.75108826 61.05797371 -145.7421875 61.16796875 C-143.87820312 61.19987305 -143.87820312 61.19987305 -141.9765625 61.23242188 C-139.3903468 61.28533347 -136.80434523 61.35021907 -134.21875 61.42773438 C-123.84055021 61.57217324 -114.38307091 59.95464242 -106.1875 53.125 C-104.42837556 50.84993124 -102.82535023 48.49078366 -101.1875 46.125 C-100.5275 46.125 -99.8675 46.125 -99.1875 46.125 C-98.6925 48.105 -98.6925 48.105 -98.1875 50.125 C-92.52046666 47.62031119 -86.87595493 45.07301668 -81.25390625 42.46875 C-79.53372367 41.71493751 -77.80459268 40.97879107 -76.05004883 40.30883789 C-68.9681122 37.60185378 -62.3975725 34.1957405 -55.75 30.5625 C-54.6141748 29.94552246 -53.47834961 29.32854492 -52.30810547 28.69287109 C-29.97649964 16.56581523 -29.97649964 16.56581523 -8.89453125 2.41796875 C-3.96382181 -1.08810795 -3.96382181 -1.08810795 0 0 Z " fill="#4E4B4C" transform="translate(186.1875,294.875)"/>
<path d="M0 0 C1.29892009 3.89676027 0.403568 4.95161875 -1.28125 8.63671875 C-1.79034912 9.76384277 -2.29944824 10.8909668 -2.82397461 12.05224609 C-3.38259656 13.26402191 -3.94127275 14.47577273 -4.5 15.6875 C-5.06038792 16.92220746 -5.61971149 18.15739854 -6.17797852 19.39306641 C-7.2799829 21.82993293 -8.38685388 24.26437014 -9.49658203 26.69775391 C-11.33892325 30.74444233 -13.15242985 34.80276013 -14.9375 38.875 C-15.20925049 39.49334717 -15.48100098 40.11169434 -15.76098633 40.7487793 C-17.96983156 45.82452587 -19.93041344 50.98276279 -21.875 56.1640625 C-23.11731354 59.29572787 -24.58701638 62.23237935 -26.15234375 65.2109375 C-27.49871845 68.0525947 -28.238642 70.95456799 -29 74 C-29.66 74 -30.32 74 -31 74 C-31.08507812 74.804375 -31.17015625 75.60875 -31.2578125 76.4375 C-32.19909466 80.95565436 -33.95189546 84.82293423 -35.875 89 C-36.40287109 90.17175781 -36.40287109 90.17175781 -36.94140625 91.3671875 C-38.46386444 94.72904684 -40.02674741 98.05324658 -41.68359375 101.3515625 C-43.08516214 104.17133511 -44.06993639 106.99517911 -45 110 C-45.66 110 -46.32 110 -47 110 C-47.02578125 110.56847656 -47.0515625 111.13695312 -47.078125 111.72265625 C-47.44031327 116.65335569 -48.24541252 119.95667954 -50.96875 124.20703125 C-52.0966141 126.16797679 -52.72234267 128.02363017 -53.375 130.1875 C-54.89079436 135.04792755 -57.1464608 139.39470557 -59.46875 143.9140625 C-61.37625463 147.75826825 -62.97252335 151.69045556 -64.578125 155.66796875 C-65.97110874 158.93229602 -67.49071595 162.1030813 -69.04833984 165.29052734 C-72.28561725 171.93391976 -74.81243586 178.11979413 -76.34765625 185.39453125 C-77.32367707 189.2927701 -79.04864391 192.50101667 -81 196 C-81.66 196 -82.32 196 -83 196 C-83.13277344 196.61488281 -83.26554687 197.22976563 -83.40234375 197.86328125 C-83.57894531 198.67152344 -83.75554687 199.47976563 -83.9375 200.3125 C-84.19853516 201.51326172 -84.19853516 201.51326172 -84.46484375 202.73828125 C-85 205 -85 205 -86 208 C-86.66 208 -87.32 208 -88 208 C-88.18175781 208.6290625 -88.36351562 209.258125 -88.55078125 209.90625 C-92.70794078 224.06191117 -92.70794078 224.06191117 -96 229 C-96.16699232 232.12521833 -96.16699232 232.12521833 -96 235 C-96.99 234.67 -97.98 234.34 -99 234 C-99 233.34 -99 232.68 -99 232 C-99.65434116 228.90403542 -99.65434116 228.90403542 -101.9375 227.9375 C-102.618125 227.628125 -103.29875 227.31875 -104 227 C-104.66 226.34 -105.32 225.68 -106 225 C-105.34 225 -104.68 225 -104 225 C-103.814375 223.80375 -103.62875 222.6075 -103.4375 221.375 C-102.30295551 216.12773174 -99.9710016 211.58000263 -97.47631836 206.87451172 C-95.93221564 203.95061622 -94.58956867 201.27089465 -94 198 C-93.34 198 -92.68 198 -92 198 C-91.896875 197.13761719 -91.79375 196.27523437 -91.6875 195.38671875 C-90.94696866 191.7387604 -89.73090801 189.10202657 -88 185.8125 C-87.36528465 184.58301172 -86.73258226 183.35248283 -86.1015625 182.12109375 C-85.76286133 181.46222168 -85.42416016 180.80334961 -85.07519531 180.12451172 C-83.10913693 176.23971607 -81.24039387 172.30889541 -79.375 168.375 C-78.99142334 167.56651611 -78.60784668 166.75803223 -78.21264648 165.92504883 C-75.62550563 160.42953931 -73.21090121 154.8977579 -70.97265625 149.25 C-70 147 -70 147 -68 144 C-67.34 144 -66.68 144 -66 144 C-66.061875 143.29875 -66.12375 142.5975 -66.1875 141.875 C-65.95743899 138.34739788 -64.70799432 136.06015649 -63 133 C-62.34 133 -61.68 133 -61 133 C-60.896875 132.154375 -60.79375 131.30875 -60.6875 130.4375 C-59.9171146 126.58557299 -58.63725486 123.55924969 -57 120 C-56.34 120 -55.68 120 -55 120 C-54.81824219 119.43152344 -54.63648438 118.86304688 -54.44921875 118.27734375 C-52.85915366 113.39298997 -51.09540222 108.68970973 -49 104 C-48.34 104 -47.68 104 -47 104 C-46.81824219 103.41992188 -46.63648438 102.83984375 -46.44921875 102.2421875 C-44.95253468 97.59095393 -43.18767982 93.37535964 -41 89 C-40.23683166 86.68222949 -39.61457864 84.36376399 -39 82 C-38.34 82 -37.68 82 -37 82 C-36.34 78.7 -35.68 75.4 -35 72 C-34.34 72 -33.68 72 -33 72 C-32.87238281 71.42894531 -32.74476563 70.85789062 -32.61328125 70.26953125 C-31.02901337 64.40673102 -28.0731557 59.06347111 -24.99609375 53.8671875 C-23.42719874 50.92627842 -22.30708731 47.82274933 -21.11083984 44.71582031 C-20.09945312 42.24314649 -18.9814477 39.90985954 -17.75390625 37.5390625 C-13.95119778 30.0181502 -10.65834043 22.26902729 -7.28515625 14.54882812 C-6.77597656 13.39189453 -6.26679688 12.23496094 -5.7421875 11.04296875 C-5.2869873 10.00164795 -4.83178711 8.96032715 -4.36279297 7.88745117 C-3.06378 5.13513545 -1.61384527 2.57794137 0 0 Z " fill="#96CA48" transform="translate(292,70)"/>
<path d="M0 0 C7.6298819 16.64488081 11.45302913 35.18411937 15.375 53 C15.5438974 53.76686127 15.7127948 54.53372253 15.8868103 55.32382202 C21.36134207 80.31517176 21.36134207 80.31517176 21 87 C18.74416277 83.23041778 18.10009202 79.16712417 17.30859375 74.91015625 C17.08333763 73.73784706 17.08333763 73.73784706 16.85353088 72.54185486 C16.3759614 70.04976015 15.90658871 67.55620351 15.4375 65.0625 C15.11838586 63.38856744 14.79873019 61.71473803 14.47851562 60.04101562 C13.89041288 56.96425313 13.30570146 53.8868856 12.72436523 50.80883789 C12.36580444 48.92346313 12.36580444 48.92346313 12 47 C11.844104 46.02603271 11.68820801 45.05206543 11.52758789 44.04858398 C11.35348389 43.37255127 11.17937988 42.69651855 11 42 C10.34 41.67 9.68 41.34 9 41 C9 39.35 9 37.7 9 36 C8.34 36 7.68 36 7 36 C4.84868539 30.39846385 3.7076402 25.28110012 3.2421875 19.3046875 C2.929211 16.32636273 2.19514913 13.74181272 1 11 C0.01 10.505 0.01 10.505 -1 10 C-1.66 10.99 -2.32 11.98 -3 13 C-3.99 11.02 -3.99 11.02 -5 9 C-10.16302013 9.93231346 -10.16302013 9.93231346 -13.6875 13.5 C-14.120625 14.325 -14.55375 15.15 -15 16 C-17.33361491 17.63353044 -18.52122462 18.0251987 -21.375 17.875 C-25.65673339 18.07889207 -28.65241432 20.59851089 -31.5625 23.625 C-33.48039799 25.45951112 -35.53643522 26.02603253 -38 27 C-40.02318078 28.29788956 -42.02866014 29.62464661 -44 31 C-42.515 31.495 -42.515 31.495 -41 32 C-41 32.66 -41 33.32 -41 34 C-42.03125 33.938125 -43.0625 33.87625 -44.125 33.8125 C-48.29995008 34.01451371 -50.37883325 35.03197459 -54 37 C-56.875 37.6875 -56.875 37.6875 -59 38 C-59 38.66 -59 39.32 -59 40 C-60.8125 42.125 -60.8125 42.125 -63 44 C-63.99 44 -64.98 44 -66 44 C-66 44.66 -66 45.32 -66 46 C-66.99 46 -67.98 46 -69 46 C-69 46.66 -69 47.32 -69 48 C-70.6796875 49.47265625 -70.6796875 49.47265625 -72.875 51.0625 C-73.59429687 51.58972656 -74.31359375 52.11695313 -75.0546875 52.66015625 C-77 54 -77 54 -79 55 C-79.66 55.99 -80.32 56.98 -81 58 C-81.94875 58.144375 -82.8975 58.28875 -83.875 58.4375 C-87.60241835 59.1084353 -88.66735697 60.08419622 -91 63 C-91.69748583 64.31747324 -92.36959957 65.64914193 -93 67 C-93.99 67.99 -93.99 67.99 -95 69 C-95.33 69.66 -95.66 70.32 -96 71 C-98.26256917 71.80584656 -100.55079252 72.40518709 -102.87109375 73.0234375 C-105.58426254 74.26801034 -105.82495714 75.30939165 -107 78 C-108.24331658 79.60124105 -109.53914376 81.1626075 -110.875 82.6875 C-111.55304688 83.47511719 -112.23109375 84.26273437 -112.9296875 85.07421875 C-115.08666609 87.08061581 -116.17525482 87.49941225 -119 88 C-120.73026102 89.47890069 -120.73026102 89.47890069 -122 91 C-122 87.14172903 -121.00916223 86.62352111 -118.3359375 83.9375 C-117.55065674 83.14609619 -116.76537598 82.35469238 -115.95629883 81.53930664 C-115.10447021 80.70133545 -114.2526416 79.86336426 -113.375 79 C-112.50705811 78.14075928 -111.63911621 77.28151855 -110.74487305 76.39624023 C-104.39873138 70.19290578 -97.88118842 64.51806997 -90.72900391 59.27587891 C-88.91902665 57.94024756 -87.13614406 56.57363489 -85.35546875 55.19921875 C-75.11990536 47.33995595 -64.49825898 40.07324754 -53.79052734 32.87597656 C-51.11330447 31.07617074 -48.44120136 29.2689712 -45.76953125 27.4609375 C-33.4295547 19.14235117 -20.87100053 11.20263951 -8.21044922 3.38183594 C-2.80070671 0 -2.80070671 0 0 0 Z " fill="#BCD780" transform="translate(309,30)"/>
<path d="M0 0 C3.57217105 2.41985781 6.82769828 4.97180281 8.78515625 8.88671875 C8.12515625 8.88671875 7.46515625 8.88671875 6.78515625 8.88671875 C6.78515625 9.54671875 6.78515625 10.20671875 6.78515625 10.88671875 C5.65980469 11.23863281 4.53445312 11.59054687 3.375 11.953125 C-5.74422565 14.86504594 -14.39303434 18.13462611 -22.98046875 22.37109375 C-26.21484375 23.88671875 -26.21484375 23.88671875 -29.29296875 24.88671875 C-32.4167537 25.95582162 -34.90754338 27.41039036 -37.71484375 29.13671875 C-42.72946303 31.96898667 -42.72946303 31.96898667 -46.90234375 31.26171875 C-47.66546875 30.80796875 -48.42859375 30.35421875 -49.21484375 29.88671875 C-48.88484375 30.87671875 -48.55484375 31.86671875 -48.21484375 32.88671875 C-47.55484375 33.21671875 -46.89484375 33.54671875 -46.21484375 33.88671875 C-47.86484375 34.87671875 -49.51484375 35.86671875 -51.21484375 36.88671875 C-51.21484375 35.22005208 -51.21484375 33.55338542 -51.21484375 31.88671875 C-51.87484375 31.88671875 -52.53484375 31.88671875 -53.21484375 31.88671875 C-53.54484375 32.87671875 -53.87484375 33.86671875 -54.21484375 34.88671875 C-55.86484375 34.55671875 -57.51484375 34.22671875 -59.21484375 33.88671875 C-59.21484375 33.22671875 -59.21484375 32.56671875 -59.21484375 31.88671875 C-58.26569092 31.38241333 -58.26569092 31.38241333 -57.29736328 30.86791992 C-46.60352516 25.17092224 -35.91905689 19.47795544 -25.58984375 13.13671875 C-24.87038574 12.69658447 -24.15092773 12.2564502 -23.40966797 11.80297852 C-19.94086626 9.65640334 -16.54497502 7.44292742 -13.20703125 5.09765625 C-12.57361816 4.66163086 -11.94020508 4.22560547 -11.28759766 3.77636719 C-9.5874166 2.59676126 -7.90802359 1.38734863 -6.23046875 0.17578125 C-3.21484375 -1.11328125 -3.21484375 -1.11328125 0 0 Z " fill="#364A28" transform="translate(186.21484375,295.11328125)"/>
<path d="M0 0 C1.70884005 1.62339805 3.37446717 3.29319053 5 5 C5 5.66 5 6.32 5 7 C5.66 7 6.32 7 7 7 C8.20060015 8.82751451 9.31072301 10.71487841 10.375 12.625 C13.24866174 17.7234528 13.24866174 17.7234528 16.4375 22.625 C18 25 18 25 18 27 C18.66 27 19.32 27 20 27 C21.4375 28.828125 21.4375 28.828125 23 31.25 C23.515625 32.03890625 24.03125 32.8278125 24.5625 33.640625 C26 36 26 36 27.0625 38.234375 C27.87676695 40.18015256 27.87676695 40.18015256 30 41 C31.12980729 43.54206639 32.04002938 46.1174195 32.9375 48.75 C33.288125 49.4925 33.63875 50.235 34 51 C34.99 51.33 35.98 51.66 37 52 C37 52.99 37 53.98 37 55 C37.66 55 38.32 55 39 55 C42 60.75 42 60.75 42 63 C42.66 63 43.32 63 44 63 C45.67549845 65.26011482 47.22653444 67.51510542 48.75 69.875 C49.19593506 70.55594727 49.64187012 71.23689453 50.10131836 71.93847656 C59.40961478 86.22884433 59.40961478 86.22884433 61 91 C61.99 91.33 62.98 91.66 64 92 C65.17578125 93.75 65.17578125 93.75 66.3125 96 C68.8922349 100.8999233 71.86387483 105.44130259 75 110 C73.35 111.32 71.7 112.64 70 114 C66.80469419 110.22438081 64.2770895 106.24390761 61.875 101.9375 C61.52824219 101.32583984 61.18148437 100.71417969 60.82421875 100.08398438 C59.13644326 97.09319447 57.49574407 94.09171842 56 91 C55.34 91 54.68 91 54 91 C53.54625 89.948125 53.0925 88.89625 52.625 87.8125 C52.34914062 87.17699219 52.07328125 86.54148437 51.7890625 85.88671875 C51.13484992 84.32243818 50.5570307 82.72646326 50 81.125 C49.505 80.073125 49.505 80.073125 49 79 C48.01 78.67 47.02 78.34 46 78 C45.05030888 76.16845284 44.11203874 74.3299014 43.23828125 72.4609375 C40.4938381 67.00668141 37.10389461 61.73252818 33.37890625 56.89453125 C32 55 32 55 30.5 51.4375 C29.16546704 48.37919529 28.30303359 47.19336533 26 45 C26 44.01 26 43.02 26 42 C25.34 42 24.68 42 24 42 C23.68546875 41.33613281 23.3709375 40.67226562 23.046875 39.98828125 C20.72637182 35.20049608 18.42930941 31.09304672 15 27 C14.0769408 25.4176128 13.15739517 23.83286858 12.26953125 22.23046875 C10.55546041 19.21897813 8.74976095 16.26544836 6.9375 13.3125 C6.26589844 12.21550781 5.59429687 11.11851562 4.90234375 9.98828125 C3.11443693 7.06735404 3.11443693 7.06735404 1.25390625 4.79296875 C0 3 0 3 0 0 Z " fill="#61A636" transform="translate(88,197)"/>
<path d="M0 0 C2.77789701 1.76775264 3.69633868 2.69438218 4.75 5.75 C3.76 6.41 2.77 7.07 1.75 7.75 C1.255 8.7709375 1.255 8.7709375 0.75 9.8125 C-0.25 11.75 -0.25 11.75 -3.25 12.75 C-17.93390366 14.32167165 -32.8855415 10.46982898 -47.25 7.75 C-47.25 5.44 -47.25 3.13 -47.25 0.75 C-46.34757568 0.76047363 -45.44515137 0.77094727 -44.51538086 0.78173828 C-41.14019167 0.81599536 -37.76518955 0.84098367 -34.38989258 0.85986328 C-32.93413359 0.8698685 -31.47839443 0.88347696 -30.02270508 0.90087891 C-27.9200346 0.92537044 -25.81763176 0.93653794 -23.71484375 0.9453125 C-22.452771 0.95578613 -21.19069824 0.96625977 -19.89038086 0.97705078 C-0.58953488 -0.22674419 -0.58953488 -0.22674419 0 0 Z " fill="#3A3939" transform="translate(77.25,357.25)"/>
<path d="M0 0 C0.99 0.33 1.98 0.66 3 1 C2.77673764 4.76163249 2.07200748 5.92831067 -0.65234375 8.640625 C-1.73709783 9.52322637 -2.83259069 10.3927649 -3.9375 11.25 C-4.48857422 11.69601562 -5.03964844 12.14203125 -5.60742188 12.6015625 C-7.6701972 14.25579302 -9.62821184 15.81410592 -12 17 C-11.505 20.465 -11.505 20.465 -11 24 C-17.45905321 26.8495823 -23.63250215 27.15108628 -30.57421875 27.1328125 C-31.37986771 27.13376923 -32.18551666 27.13472595 -33.01557922 27.13571167 C-34.70903604 27.13638907 -36.40249551 27.1345656 -38.09594727 27.13037109 C-40.68967478 27.12499549 -43.2832308 27.13034175 -45.87695312 27.13671875 C-47.52604205 27.1360583 -49.17513087 27.13477783 -50.82421875 27.1328125 C-51.5992424 27.13483673 -52.37426605 27.13686096 -53.17277527 27.13894653 C-56.37891877 27.12493291 -58.93610264 27.02129912 -62 26 C-61.125 21.125 -61.125 21.125 -60 20 C-57.89744551 19.96115154 -55.79361794 19.98864914 -53.69140625 20.04296875 C-52.38623047 20.06423828 -51.08105469 20.08550781 -49.73632812 20.10742188 C-47.66269573 20.14417719 -45.58993975 20.18670422 -43.5168457 20.24682617 C-31.23140375 20.58639964 -22.89539601 18.84422113 -13.3125 11.125 C-12.76287598 10.68953857 -12.21325195 10.25407715 -11.64697266 9.80541992 C-8.63445516 7.40191033 -5.73476277 4.89414631 -2.875 2.3125 C-1.92625 1.549375 -0.9775 0.78625 0 0 Z " fill="#4C4748" transform="translate(368,251)"/>
<path d="M0 0 C0.99 0.33 1.98 0.66 3 1 C-2.42677729 4.51458608 -7.86650231 7.95018986 -13.5 11.125 C-20.02578263 14.86257144 -26.13542194 19.1679348 -32.23828125 23.55712891 C-36.77830617 26.75311728 -40.54904172 28.85740928 -46 30 C-45.67 27.69 -45.34 25.38 -45 23 C-45.99 22.67 -46.98 22.34 -48 22 C-45.59523795 16.51714252 -41.80785065 14.96253568 -36.625 12.625 C-35.86960937 12.25761719 -35.11421875 11.89023437 -34.3359375 11.51171875 C-30.10899843 9.55343404 -27.6217885 8.5812589 -23 10 C-21.1645201 8.66621425 -21.1645201 8.66621425 -20 7 C-19.67 8.32 -19.34 9.64 -19 11 C-18.67 10.67 -18.34 10.34 -18 10 C-18 8.68 -18 7.36 -18 6 C-15.33333333 6 -12.66666667 6 -10 6 C-7.37962941 4.51311208 -4.89349518 2.86760621 -2.375 1.21484375 C-1.59125 0.81394531 -0.8075 0.41304688 0 0 Z " fill="#413F3F" transform="translate(155,319)"/>
<path d="M0 0 C2.475 0.495 2.475 0.495 5 1 C5 1.66 5 2.32 5 3 C6.1446875 2.8453125 6.1446875 2.8453125 7.3125 2.6875 C8.199375 2.790625 9.08625 2.89375 10 3 C11.8125 5.5 11.8125 5.5 13 8 C12.34 8 11.68 8 11 8 C11 8.66 11 9.32 11 10 C9.87464844 10.35191406 8.74929687 10.70382812 7.58984375 11.06640625 C-1.03858668 13.82323511 -9.31339493 16.79934398 -17.40258789 20.90258789 C-18.90988875 21.65445466 -20.45254745 22.33468043 -22 23 C-22.66 22.67 -23.32 22.34 -24 22 C-23.01 21.34 -22.02 20.68 -21 20 C-21.66 19.01 -22.32 18.02 -23 17 C-20.36095629 15.58622659 -17.92879371 14.62759865 -15 14 C-14.67 12.68 -14.34 11.36 -14 10 C-13.01 10 -12.02 10 -11 10 C-11 9.34 -11 8.68 -11 8 C-8.84765625 6.5625 -8.84765625 6.5625 -6.0625 5 C-2.37612792 3.13922105 -2.37612792 3.13922105 0 0 Z " fill="#3C3A3A" transform="translate(182,296)"/>
<path d="M0 0 C1.29892009 3.89676027 0.403568 4.95161875 -1.28125 8.63671875 C-1.79034912 9.76384277 -2.29944824 10.8909668 -2.82397461 12.05224609 C-3.38259656 13.26402191 -3.94127275 14.47577273 -4.5 15.6875 C-5.06038792 16.92220746 -5.61971149 18.15739854 -6.17797852 19.39306641 C-7.2799829 21.82993293 -8.38685388 24.26437014 -9.49658203 26.69775391 C-11.33892325 30.74444233 -13.15242985 34.80276013 -14.9375 38.875 C-15.20925049 39.49334717 -15.48100098 40.11169434 -15.76098633 40.7487793 C-17.96983156 45.82452587 -19.93041344 50.98276279 -21.875 56.1640625 C-23.11731354 59.29572787 -24.58701638 62.23237935 -26.15234375 65.2109375 C-27.49871845 68.0525947 -28.238642 70.95456799 -29 74 C-29.66 74 -30.32 74 -31 74 C-31.103125 74.86625 -31.20625 75.7325 -31.3125 76.625 C-32.05492844 80.26964872 -32.96867361 82.88046305 -35 86 C-37.6875 86.875 -37.6875 86.875 -40 87 C-39.67 85.35 -39.34 83.7 -39 82 C-38.34 82 -37.68 82 -37 82 C-36.34 78.7 -35.68 75.4 -35 72 C-34.34 72 -33.68 72 -33 72 C-32.87238281 71.42894531 -32.74476563 70.85789062 -32.61328125 70.26953125 C-31.02901337 64.40673102 -28.0731557 59.06347111 -24.99609375 53.8671875 C-23.42719874 50.92627842 -22.30708731 47.82274933 -21.11083984 44.71582031 C-20.09945312 42.24314649 -18.9814477 39.90985954 -17.75390625 37.5390625 C-13.95119778 30.0181502 -10.65834043 22.26902729 -7.28515625 14.54882812 C-6.52138672 12.81342773 -6.52138672 12.81342773 -5.7421875 11.04296875 C-5.2869873 10.00164795 -4.83178711 8.96032715 -4.36279297 7.88745117 C-3.06378 5.13513545 -1.61384527 2.57794137 0 0 Z " fill="#A6D354" transform="translate(292,70)"/>
<path d="M0 0 C0.66 0 1.32 0 2 0 C3.6160552 2.41073923 5.10656134 4.8077335 6.5625 7.3125 C6.97435547 8.00279297 7.38621094 8.69308594 7.81054688 9.40429688 C9.50670058 12.27748687 10.93976596 14.81929787 12 18 C12.99 18.33 13.98 18.66 15 19 C16.17578125 20.75 16.17578125 20.75 17.3125 23 C19.8922349 27.8999233 22.86387483 32.44130259 26 37 C24.35 38.32 22.7 39.64 21 41 C17.80469419 37.22438081 15.2770895 33.24390761 12.875 28.9375 C12.35486328 28.02000977 12.35486328 28.02000977 11.82421875 27.08398438 C10.13644326 24.09319447 8.49574407 21.09171842 7 18 C6.34 18 5.68 18 5 18 C4.5875 17.01 4.175 16.02 3.75 15 C2.00198619 10.9101495 0.01654053 6.96354518 -2 3 C-1.34 2.01 -0.68 1.02 0 0 Z " fill="#569D35" transform="translate(137,270)"/>
<path d="M0 0 C0.66 0 1.32 0 2 0 C2.72919437 27.5473429 2.74428179 69.38357731 -13 93 C-14.09644404 87.05542387 -14.41029848 83.32006564 -11 78 C-10.34 78 -9.68 78 -9 78 C-8.87625 77.071875 -8.7525 76.14375 -8.625 75.1875 C-8.17328927 71.95351301 -7.56666965 68.76635681 -6.9375 65.5625 C-6.32406203 62.29527605 -5.91256657 59.31898101 -6.0625 56 C-6.17863689 52.63886178 -5.48636875 49.96143315 -4.5 46.75 C-2.92691631 41.50148713 -2.78197132 36.78754384 -2.9921875 31.3359375 C-2.99476563 30.56507813 -2.99734375 29.79421875 -3 29 C-2.67 28.67 -2.34 28.34 -2 28 C-1.92769007 25.18443216 -2.00376369 22.38207789 -2.0625 19.56640625 C-2 17 -2 17 -1 15 C-0.76827173 12.45384991 -0.58105471 9.92603775 -0.4375 7.375 C-0.39431641 6.66859375 -0.35113281 5.9621875 -0.30664062 5.234375 C-0.20055249 3.48981463 -0.09977111 1.74493303 0 0 Z " fill="#B6D17F" transform="translate(332,156)"/>
<path d="M0 0 C0.66 0 1.32 0 2 0 C2.99 2.97 3.98 5.94 5 9 C5.66 9 6.32 9 7 9 C9.89285918 12.3008265 12.10237878 16.05878669 14 20 C14.66 20.66 15.32 21.32 16 22 C17.32 21.34 18.64 20.68 20 20 C20.33 22.31 20.66 24.62 21 27 C20.67 26.34 20.34 25.68 20 25 C19.34 25 18.68 25 18 25 C18.28875 25.556875 18.5775 26.11375 18.875 26.6875 C20 29 20 29 21 31.6875 C21.77234179 34.15427599 21.77234179 34.15427599 24 35 C24 35.66 24 36.32 24 37 C24.66 37 25.32 37 26 37 C26.66 37.721875 27.32 38.44375 28 39.1875 C33.90449252 45.37315883 43.71304441 48.84368061 52 50 C52 50.66 52 51.32 52 52 C49.71296692 53.19725883 47.42115138 54.38297018 45.125 55.5625 C44.14853516 56.07586914 44.14853516 56.07586914 43.15234375 56.59960938 C41.46470143 57.46082891 39.73420407 58.23686703 38 59 C37.01 58.505 37.01 58.505 36 58 C39.3 56.02 42.6 54.04 46 52 C44.96101563 51.52691406 43.92203125 51.05382812 42.8515625 50.56640625 C34.03958891 46.43820774 26.71500113 42.20892416 20 35 C19.23300781 34.17886719 18.46601562 33.35773438 17.67578125 32.51171875 C9.47797803 23.11695275 3.37312992 12.01677534 0 0 Z " fill="#93BD61" transform="translate(74,277)"/>
<path d="M0 0 C6.01117092 0.54919336 10.97766352 3.04861931 16.375 5.5625 C17.30183594 5.98724609 18.22867188 6.41199219 19.18359375 6.84960938 C21.45875685 7.89336976 23.73067035 8.94363182 26 10 C23.15120857 10.87364449 22.31584696 11.12769311 19.44921875 9.96875 C18.53785156 9.4840625 17.62648438 8.999375 16.6875 8.5 C11.80723084 6.12528458 9.19132004 5.50028532 4 7 C4 6.01 4 5.02 4 4 C3.01 4 2.02 4 1 4 C0.970271 4.97610229 0.970271 4.97610229 0.93994141 5.97192383 C0.84470701 8.91919151 0.73502182 11.86574885 0.625 14.8125 C0.57859375 16.34874023 0.57859375 16.34874023 0.53125 17.91601562 C0.49257812 18.89892578 0.45390625 19.88183594 0.4140625 20.89453125 C0.3826416 21.80050049 0.3512207 22.70646973 0.31884766 23.63989258 C0 26 0 26 -2 29 C-2.97483225 33.33848418 -3.11728419 37.49377217 -3.09765625 41.9296875 C-3.09443359 43.21875 -3.09121094 44.5078125 -3.08789062 45.8359375 C-3.07953733 47.18229236 -3.07107241 48.52864652 -3.0625 49.875 C-3.0574783 51.24479004 -3.05291657 52.61458185 -3.04882812 53.984375 C-3.03707254 57.3229619 -3.02063964 60.66145815 -3 64 C-3.99 64.495 -3.99 64.495 -5 65 C-5.83293095 8.74939643 -5.83293095 8.74939643 0 0 Z " fill="#A5C575" transform="translate(69,165)"/>
<path d="M0 0 C0 0.99 0 1.98 0 3 C-1.40527344 4.34692383 -1.40527344 4.34692383 -3.359375 5.70703125 C-4.41511719 6.4640332 -4.41511719 6.4640332 -5.4921875 7.23632812 C-6.98139029 8.27593595 -8.47096556 9.31501045 -9.9609375 10.35351562 C-14.40030393 13.5377521 -17.2313985 16.2893455 -20 21 C-20.66 21.66 -21.32 22.32 -22 23 C-22.33 23.66 -22.66 24.32 -23 25 C-25.26256917 25.80584656 -27.55079252 26.40518709 -29.87109375 27.0234375 C-32.58426254 28.26801034 -32.82495714 29.30939165 -34 32 C-35.24331658 33.60124105 -36.53914376 35.1626075 -37.875 36.6875 C-38.55304688 37.47511719 -39.23109375 38.26273438 -39.9296875 39.07421875 C-42.08666609 41.08061581 -43.17525482 41.49941225 -46 42 C-47.73026102 43.47890069 -47.73026102 43.47890069 -49 45 C-49 41.14172903 -48.00916223 40.62352111 -45.3359375 37.9375 C-44.55065674 37.14609619 -43.76537598 36.35469238 -42.95629883 35.53930664 C-42.10447021 34.70133545 -41.2526416 33.86336426 -40.375 33 C-39.50705811 32.14075928 -38.63911621 31.28151855 -37.74487305 30.39624023 C-31.42893036 24.22242519 -24.94317441 18.56087789 -17.82568359 13.34179688 C-15.73117446 11.80242509 -13.65630009 10.2384057 -11.58203125 8.671875 C-7.73185192 5.76698684 -3.86930044 2.87936253 0 0 Z " fill="#BAD287" transform="translate(236,76)"/>
<path d="M0 0 C0.99 0 1.98 0 3 0 C3 0.99 3 1.98 3 3 C3.99 2.34 4.98 1.68 6 1 C10.39219979 1.4672553 14.18455805 3.23905182 18.20703125 4.96484375 C21.11326662 6.1124472 21.11326662 6.1124472 24.73046875 6.83984375 C29.69015056 8.02967673 33.99783348 10.27859399 38.5 12.625 C39.32242188 13.04523438 40.14484375 13.46546875 40.9921875 13.8984375 C42.99868068 14.92501541 45.00100849 15.95891191 47 17 C45.203125 18.0546875 45.203125 18.0546875 43 19 C39.75 18.125 39.75 18.125 37 17 C37 16.34 37 15.68 37 15 C36.34 15 35.68 15 35 15 C34.4121875 14.2884375 34.4121875 14.2884375 33.8125 13.5625 C31.15993086 11.27580246 28.40320306 11.44115595 25 11 C24.67 10.34 24.34 9.68 24 9 C23.01 9.66 22.02 10.32 21 11 C19.5 9.625 19.5 9.625 18 8 C18 7.34 18 6.68 18 6 C11.68731397 5.62447835 11.68731397 5.62447835 6 8 C5.67 7.01 5.34 6.02 5 5 C4.34 5 3.68 5 3 5 C2.87625 5.78375 2.7525 6.5675 2.625 7.375 C2 10 2 10 0 12 C-1.53166168 7.91556885 -0.63081652 4.20544343 0 0 Z " fill="#87C241" transform="translate(70,169)"/>
<path d="M0 0 C0.95465783 2.16967689 1.14401212 3.56328793 0.3984375 5.82421875 C-0.35870385 7.5684743 -1.17609198 9.28627131 -2 11 C-2.66 11 -3.32 11 -4 11 C-3.89300781 11.61488281 -3.78601563 12.22976562 -3.67578125 12.86328125 C-3.55589844 13.67152344 -3.43601563 14.47976562 -3.3125 15.3125 C-3.12107422 16.51326172 -3.12107422 16.51326172 -2.92578125 17.73828125 C-3 20 -3 20 -4.5 21.65625 C-4.995 22.0996875 -5.49 22.543125 -6 23 C-5.77242269 25.16299211 -5.77242269 25.16299211 -5 27 C-5.66 27 -6.32 27 -7 27 C-7.268125 27.556875 -7.53625 28.11375 -7.8125 28.6875 C-9 31 -9 31 -10.5 33.125 C-12.31461443 36.60301098 -12.85817639 39.84457205 -13.47265625 43.6953125 C-14 46 -14 46 -16 49 C-16.66 48.34 -17.32 47.68 -18 47 C-7.55171187 14.42220598 -7.55171187 14.42220598 -1 2 C-0.67 1.34 -0.34 0.68 0 0 Z " fill="#B0D267" transform="translate(163,155)"/>
<path d="M0 0 C-0.66 0.66 -1.32 1.32 -2 2 C-2 2.99 -2 3.98 -2 5 C-4.59988552 6.50787377 -7.20440197 8.00645461 -9.8125 9.5 C-10.55048828 9.92925781 -11.28847656 10.35851562 -12.04882812 10.80078125 C-12.76103516 11.20683594 -13.47324219 11.61289062 -14.20703125 12.03125 C-14.8616333 12.40830078 -15.51623535 12.78535156 -16.19067383 13.17382812 C-19.51100072 14.68995094 -22.57009465 13.74160116 -26 13 C-22.25 10 -22.25 10 -20 10 C-20 9.34 -20 8.68 -20 8 C-18.37750059 7.16180842 -16.75191503 6.3295884 -15.125 5.5 C-14.22007812 5.0359375 -13.31515625 4.571875 -12.3828125 4.09375 C-10 3 -10 3 -8 3 C-8 2.34 -8 1.68 -8 1 C-4.93251126 -0.86240388 -3.40254489 -1.2151946 0 0 Z M-29 13 C-28.01 13 -27.02 13 -26 13 C-25.67 13.99 -25.34 14.98 -25 16 C-24.34 16.33 -23.68 16.66 -23 17 C-25.475 18.485 -25.475 18.485 -28 20 C-28 19.01 -28 18.02 -28 17 C-28.3062434 15.66018514 -28.63451555 14.32488113 -29 13 Z " fill="#383B31" transform="translate(163,312)"/>
<path d="M0 0 C2.59752567 0.26277295 5.16509065 0.58078861 7.75 0.9375 C15.22922843 1.90578235 22.45172091 2.23629395 30 2 C30.66 3.32 31.32 4.64 32 6 C27.64028686 6.16775443 23.28038583 6.32829897 18.92016602 6.48217773 C17.43702051 6.53553529 15.95394439 6.59085973 14.47094727 6.64819336 C12.33885663 6.73027921 10.20661621 6.80528001 8.07421875 6.87890625 C6.14968872 6.94960327 6.14968872 6.94960327 4.1862793 7.02172852 C1 7 1 7 -2 6 C-1.125 1.125 -1.125 1.125 0 0 Z " fill="#3B3537" transform="translate(308,271)"/>
<path d="M0 0 C1.14304512 3.42913537 1.0321597 4.58593331 0 8 C-2.18276613 11.76338989 -4.19539639 14.79087532 -8 17 C-8.99 17 -9.98 17 -11 17 C-10.7525 18.0725 -10.505 19.145 -10.25 20.25 C-10 24 -10 24 -11.8125 26.4375 C-14 28 -14 28 -16 28 C-16 28.99 -16 29.98 -16 31 C-16.99 31 -17.98 31 -19 31 C-19 31.99 -19 32.98 -19 34 C-19.66 34 -20.32 34 -21 34 C-17.34131711 21.82890416 -9.00936566 9.00936566 0 0 Z " fill="#B3D371" transform="translate(185,121)"/>
<path d="M0 0 C1.70884005 1.62339805 3.37446717 3.29319053 5 5 C5 5.66 5 6.32 5 7 C5.66 7 6.32 7 7 7 C8.20060015 8.82751451 9.31072301 10.71487841 10.375 12.625 C13.24866174 17.7234528 13.24866174 17.7234528 16.4375 22.625 C18 25 18 25 18 27 C18.66 27 19.32 27 20 27 C21.4375 28.828125 21.4375 28.828125 23 31.25 C23.515625 32.03890625 24.03125 32.8278125 24.5625 33.640625 C26 36 26 36 27.0625 38.234375 C27.87676695 40.18015256 27.87676695 40.18015256 30 41 C30 41.66 30 42.32 30 43 C28.68 43.66 27.36 44.32 26 45 C26 44.01 26 43.02 26 42 C25.34 42 24.68 42 24 42 C23.68546875 41.33613281 23.3709375 40.67226562 23.046875 39.98828125 C20.72637182 35.20049608 18.42930941 31.09304672 15 27 C14.0769408 25.4176128 13.15739517 23.83286858 12.26953125 22.23046875 C10.55546041 19.21897813 8.74976095 16.26544836 6.9375 13.3125 C6.26589844 12.21550781 5.59429687 11.11851562 4.90234375 9.98828125 C3.11443693 7.06735404 3.11443693 7.06735404 1.25390625 4.79296875 C0 3 0 3 0 0 Z " fill="#6AAC36" transform="translate(88,197)"/>
<path d="M0 0 C0.99 0.33 1.98 0.66 3 1 C-0.65648681 3.3496056 -4.3266781 5.67682176 -8 8 C-8.88300781 8.57105469 -9.76601562 9.14210938 -10.67578125 9.73046875 C-16.82088818 13.60102599 -22.02333755 16.42607098 -29.5 15.625 C-30.325 15.41875 -31.15 15.2125 -32 15 C-31.34 14.34 -30.68 13.68 -30 13 C-30.33 12.01 -30.66 11.02 -31 10 C-28 9 -28 9 -25.5 9.625 C-24.675 9.74875 -23.85 9.8725 -23 10 C-21.1645201 8.66621425 -21.1645201 8.66621425 -20 7 C-19.67 8.32 -19.34 9.64 -19 11 C-18.67 10.67 -18.34 10.34 -18 10 C-18 8.68 -18 7.36 -18 6 C-15.33333333 6 -12.66666667 6 -10 6 C-7.37962941 4.51311208 -4.89349518 2.86760621 -2.375 1.21484375 C-1.59125 0.81394531 -0.8075 0.41304688 0 0 Z " fill="#41423A" transform="translate(155,319)"/>
<path d="M0 0 C0.66 0.33 1.32 0.66 2 1 C-5.64738688 10.95550728 -15.44819644 18.01641075 -26.5625 23.625 C-27.24111084 23.96789062 -27.91972168 24.31078125 -28.61889648 24.6640625 C-32.05837927 26.31977441 -34.11113235 27 -38 27 C-38 26.34 -38 25.68 -38 25 C-34.7 24.34 -31.4 23.68 -28 23 C-28 22.34 -28 21.68 -28 21 C-26.35 20.67 -24.7 20.34 -23 20 C-23 19.34 -23 18.68 -23 18 C-20.69 17.34 -18.38 16.68 -16 16 C-15.938125 15.05125 -15.87625 14.1025 -15.8125 13.125 C-15 10 -15 10 -12.6875 8.625 C-10 8 -10 8 -6 8 C-5.67 6.68 -5.34 5.36 -5 4 C-4.0409375 3.8453125 -4.0409375 3.8453125 -3.0625 3.6875 C-2.381875 3.460625 -1.70125 3.23375 -1 3 C-0.67 2.01 -0.34 1.02 0 0 Z " fill="#B1CD70" transform="translate(295,288)"/>
<path d="M0 0 C4.52065428 -0.049377 9.04115217 -0.08570823 13.56201172 -0.10986328 C15.10045098 -0.11993118 16.63887107 -0.13358646 18.17724609 -0.15087891 C20.38644133 -0.17509317 22.59538395 -0.18647491 24.8046875 -0.1953125 C25.49432587 -0.20563507 26.18396423 -0.21595764 26.89450073 -0.22659302 C28.59800906 -0.22699478 30.30085943 -0.12191026 32 0 C34 2 34 2 34 5 C36.64 5 39.28 5 42 5 C42 5.33 42 5.66 42 6 C37.22721102 6.94864925 32.60534023 7.13171421 27.7578125 7.09765625 C26.98944061 7.0962413 26.22106873 7.09482635 25.42941284 7.09336853 C22.99456761 7.08780683 20.55981706 7.0752616 18.125 7.0625 C16.46614717 7.05748004 14.80729288 7.05291801 13.1484375 7.04882812 C9.0989223 7.03784998 5.04947716 7.02061206 1 7 C1 6.67 1 6.34 1 6 C10.24 5.67 19.48 5.34 29 5 C28.67 4.34 28.34 3.68 28 3 C27.23558594 3.02320313 26.47117187 3.04640625 25.68359375 3.0703125 C16.9146689 3.21804409 8.64497366 2.33919371 0 1 C0 0.67 0 0.34 0 0 Z " fill="#635D5D" transform="translate(310,271)"/>
<path d="M0 0 C0.99 0.495 0.99 0.495 2 1 C2 1.99 2 2.98 2 4 C3.32 3.67 4.64 3.34 6 3 C6 3.99 6 4.98 6 6 C5.67 6.33 5.34 6.66 5 7 C4.82576399 10.83319229 5.12196632 14.26835686 6 18 C5.34 18 4.68 18 4 18 C4 18.66 4 19.32 4 20 C4.66 20.33 5.32 20.66 6 21 C6.23831216 22.83840809 6.4673 24.67851848 6.6484375 26.5234375 C7.30118961 31.12171345 8.69917956 35.5493942 10 40 C9.34 40 8.68 40 8 40 C-0.16326658 11.23274072 -0.16326658 11.23274072 0 0 Z " fill="#96BB60" transform="translate(65,236)"/>
<path d="M0 0 C0.66 0 1.32 0 2 0 C1.67 3.3 1.34 6.6 1 10 C0.01 8.68 -0.98 7.36 -2 6 C-7.16302013 6.93231346 -7.16302013 6.93231346 -10.6875 10.5 C-11.120625 11.325 -11.55375 12.15 -12 13 C-15.01024899 15.10717429 -17.38784611 15.18523866 -21 15 C-21.99 15 -22.98 15 -24 15 C-22.89932004 14.18278283 -21.79430269 13.37140549 -20.6875 12.5625 C-19.76517578 11.88380859 -19.76517578 11.88380859 -18.82421875 11.19140625 C-17 10 -17 10 -14 9 C-13.67 8.01 -13.34 7.02 -13 6 C-11.02 5.67 -9.04 5.34 -7 5 C-7 4.34 -7 3.68 -7 3 C-5.5459375 2.814375 -5.5459375 2.814375 -4.0625 2.625 C-3.051875 2.41875 -2.04125 2.2125 -1 2 C-0.67 1.34 -0.34 0.68 0 0 Z " fill="#C2E376" transform="translate(306,33)"/>
<path d="M0 0 C3 0 3 0 4.6875 1.375 C6 3 6 3 6 5 C6.66 5 7.32 5 8 5 C8.66 5.721875 9.32 6.44375 10 7.1875 C15.90449252 13.37315883 25.71304441 16.84368061 34 18 C34 18.66 34 19.32 34 20 C31.71296692 21.19725883 29.42115138 22.38297018 27.125 23.5625 C26.14853516 24.07586914 26.14853516 24.07586914 25.15234375 24.59960938 C23.46470143 25.46082891 21.73420407 26.23686703 20 27 C19.34 26.67 18.68 26.34 18 26 C21.3 24.02 24.6 22.04 28 20 C26.96101563 19.52691406 25.92203125 19.05382812 24.8515625 18.56640625 C15.06511802 13.97614809 6.17130146 9.25695219 0 0 Z " fill="#9DBB7B" transform="translate(92,309)"/>
<path d="M0 0 C0.99 0.33 1.98 0.66 3 1 C3 1.99 3 2.98 3 4 C3.680625 4.103125 4.36125 4.20625 5.0625 4.3125 C8.59122311 5.13837137 11.67371048 6.56625452 15 8 C20.38539553 9.7995588 25.3196026 10.39392967 30.9375 10.625 C31.71673828 10.66367187 32.49597656 10.70234375 33.29882812 10.7421875 C35.19887379 10.83544127 37.09940278 10.91875962 39 11 C38.67 11.66 38.34 12.32 38 13 C23.80284174 13.77345293 11.69868583 12.63886669 0.2578125 3.13671875 C-0.15726563 2.76160156 -0.57234375 2.38648438 -1 2 C-0.67 1.34 -0.34 0.68 0 0 Z " fill="#B1CC72" transform="translate(202,308)"/>
<path d="M0 0 C0.99 0.33 1.98 0.66 3 1 C3 1.66 3 2.32 3 3 C8.94 2.505 8.94 2.505 15 2 C12.3299989 4.6700011 9.21345127 5.61793171 5.75 6.9375 C1.93885082 8.40131074 -1.7341905 9.86122272 -5.359375 11.75390625 C-6.23078125 12.16511719 -7.1021875 12.57632812 -8 13 C-8.66 12.67 -9.32 12.34 -10 12 C-9.01 11.34 -8.02 10.68 -7 10 C-7.66 9.01 -8.32 8.02 -9 7 C-6.36095629 5.58622659 -3.92879371 4.62759865 -1 4 C-0.67 2.68 -0.34 1.36 0 0 Z " fill="#4E494C" transform="translate(168,306)"/>
<path d="M0 0 C2.475 0.495 2.475 0.495 5 1 C5 1.66 5 2.32 5 3 C5.763125 2.896875 6.52625 2.79375 7.3125 2.6875 C8.199375 2.790625 9.08625 2.89375 10 3 C11.8125 5.5 11.8125 5.5 13 8 C10 9 10 9 7.8125 8.0625 C7.214375 7.711875 6.61625 7.36125 6 7 C5.67 7.66 5.34 8.32 5 9 C3 8 3 8 2 5 C2.33 4.01 2.66 3.02 3 2 C2.01 2 1.02 2 0 2 C0 1.34 0 0.68 0 0 Z M-1 2 C-0.34 2.33 0.32 2.66 1 3 C1 3.66 1 4.32 1 5 C0.01 5.495 0.01 5.495 -1 6 C-1.474375 6.825 -1.94875 7.65 -2.4375 8.5 C-4 11 -4 11 -7 12 C-7 10 -7 8 -7 6 C-4 3.8125 -4 3.8125 -1 2 Z " fill="#393C32" transform="translate(182,296)"/>
<path d="M0 0 C0 0.99 0 1.98 0 3 C-2.67083033 4.55157383 -5.36369892 6.06018972 -8.0625 7.5625 C-8.81466797 8.00013672 -9.56683594 8.43777344 -10.34179688 8.88867188 C-15.31036812 11.62031061 -18.30787733 12.58722651 -24 11 C-26.65234375 10.02734375 -26.65234375 10.02734375 -28.9375 8.9375 C-29.70964844 8.57527344 -30.48179688 8.21304687 -31.27734375 7.83984375 C-31.84582031 7.56269531 -32.41429688 7.28554688 -33 7 C-31.68 6.34 -30.36 5.68 -29 5 C-28.67 5.66 -28.34 6.32 -28 7 C-25.19521805 7.91485573 -25.19521805 7.91485573 -21.9375 8.625 C-20.83277344 8.88539063 -19.72804688 9.14578125 -18.58984375 9.4140625 C-17.73519531 9.60742188 -16.88054687 9.80078125 -16 10 C-16 9.34 -16 8.68 -16 8 C-10.25 5 -10.25 5 -8 5 C-8 4.34 -8 3.68 -8 3 C-7.01 3 -6.02 3 -5 3 C-5 2.34 -5 1.68 -5 1 C-3.35 0.67 -1.7 0.34 0 0 Z " fill="#7CAB53" transform="translate(144,316)"/>
<path d="M0 0 C0.33 0 0.66 0 1 0 C1.66 4.62 2.32 9.24 3 14 C2.01 14 1.02 14 0 14 C-0.33 14.66 -0.66 15.32 -1 16 C-1.66 16 -2.32 16 -3 16 C-4.01871227 11.11682489 -4.65965743 7.38456255 -2.0625 2.9375 C-1.381875 1.968125 -0.70125 0.99875 0 0 Z " fill="#BFE576" transform="translate(325,96)"/>
<path d="M0 0 C0.33 0.99 0.66 1.98 1 3 C-4.0152581 6.02731877 -9.02704006 9.0521585 -14.13671875 11.91796875 C-15.63524064 12.78817958 -17.11243644 13.69506241 -18.58203125 14.61328125 C-19.48308594 15.17402344 -20.38414062 15.73476563 -21.3125 16.3125 C-22.15425781 16.84488281 -22.99601562 17.37726562 -23.86328125 17.92578125 C-24.92095703 18.45751953 -24.92095703 18.45751953 -26 19 C-26.66 18.67 -27.32 18.34 -28 18 C-18.79001306 11.78357728 -9.51342848 5.74335143 0 0 Z " fill="#C7D99B" transform="translate(292,39)"/>
<path d="M0 0 C1.44249562 4.32748687 -0.55496896 7.13415057 -2.375 11.0625 C-2.705 11.79533203 -3.035 12.52816406 -3.375 13.28320312 C-4.54576583 15.87459336 -5.72820337 18.45640674 -7 21 C-6.34 21.33 -5.68 21.66 -5 22 C-6.98 22 -8.96 22 -11 22 C-11 21.01 -11 20.02 -11 19 C-10.34 19 -9.68 19 -9 19 C-6.89653394 15.03613508 -5.53630131 10.89646703 -4.09765625 6.65625 C-3.02284787 4.05529022 -1.78678528 2.15839589 0 0 Z " fill="#C1D78B" transform="translate(318,249)"/>
<path d="M0 0 C0.99 0.33 1.98 0.66 3 1 C-4.16311745 5.6830439 -11.43187517 10.00367876 -19 14 C-18.67 13.01 -18.34 12.02 -18 11 C-18 10.67 -18 10.34 -18 10 C-18 8.68 -18 7.36 -18 6 C-15.33333333 6 -12.66666667 6 -10 6 C-7.37962941 4.51311208 -4.89349518 2.86760621 -2.375 1.21484375 C-1.59125 0.81394531 -0.8075 0.41304688 0 0 Z " fill="#67695F" transform="translate(155,319)"/>
<path d="M0 0 C1.52519276 0.08937803 3.04681929 0.24537146 4.5625 0.4375 C5.80193359 0.59025391 5.80193359 0.59025391 7.06640625 0.74609375 C7.70449219 0.82988281 8.34257812 0.91367187 9 1 C9 2.32 9 3.64 9 5 C1.375 7.125 1.375 7.125 -2 6 C-1.125 1.125 -1.125 1.125 0 0 Z " fill="#3C3F2F" transform="translate(308,271)"/>
<path d="M0 0 C1.70884005 1.62339805 3.37446717 3.29319053 5 5 C5 5.66 5 6.32 5 7 C5.66 7 6.32 7 7 7 C8.26432888 8.909633 9.43812136 10.87975606 10.5625 12.875 C11.18253906 13.96554688 11.80257812 15.05609375 12.44140625 16.1796875 C13.3212751 17.77183113 14.18647796 19.37295593 15 21 C14.01 21.33 13.02 21.66 12 22 C11.63648437 21.38253906 11.27296875 20.76507813 10.8984375 20.12890625 C7.80565756 14.91876157 4.6026053 9.85650133 1.1015625 4.91015625 C0 3 0 3 0 0 Z " fill="#73B338" transform="translate(88,197)"/>
<path d="M0 0 C1.14304512 3.42913537 1.0321597 4.58593331 0 8 C-3.33333333 13.77777778 -3.33333333 13.77777778 -7 15 C-3.77803738 3.26285047 -3.77803738 3.26285047 0 0 Z M-9 15 C-8.34 15.33 -7.68 15.66 -7 16 C-7.99 16 -8.98 16 -10 16 C-9.67 15.67 -9.34 15.34 -9 15 Z " fill="#B5D66E" transform="translate(185,121)"/>
<path d="M0 0 C0.99 0.33 1.98 0.66 3 1 C2.67 2.65 2.34 4.3 2 6 C1.67 5.01 1.34 4.02 1 3 C0.38253906 3.50789062 -0.23492187 4.01578125 -0.87109375 4.5390625 C-6.39179873 9.02621084 -12.00148884 13.17486245 -18 17 C-18.66 16.67 -19.32 16.34 -20 16 C-19.14277344 15.34773438 -18.28554688 14.69546875 -17.40234375 14.0234375 C-16.2471638 13.14092864 -15.09223193 12.25809499 -13.9375 11.375 C-13.34275879 10.9214917 -12.74801758 10.4679834 -12.13525391 10.00073242 C-8.93516438 7.54494124 -5.85530739 5.03532943 -2.875 2.3125 C-1.451875 1.1678125 -1.451875 1.1678125 0 0 Z " fill="#858083" transform="translate(368,251)"/>
<path d="M0 0 C5.09882455 1.5280389 9.65665659 3.71036856 14.375 6.125 C15.11105469 6.49753906 15.84710938 6.87007812 16.60546875 7.25390625 C18.40550358 8.1656122 20.20301402 9.08229932 22 10 C20.203125 11.0546875 20.203125 11.0546875 18 12 C14.75 11.125 14.75 11.125 12 10 C12 9.34 12 8.68 12 8 C11.34 8 10.68 8 10 8 C9.608125 7.5875 9.21625 7.175 8.8125 6.75 C6.18780183 4.21580866 3.19781235 2.74974638 0 1 C0 0.67 0 0.34 0 0 Z " fill="#9DBF70" transform="translate(95,176)"/>
<path d="M0 0 C0.66 0 1.32 0 2 0 C2.33 1.32 2.66 2.64 3 4 C4.98 3.67 6.96 3.34 9 3 C5.93882432 5.62386487 5.26826873 6 1 6 C0.67 5.34 0.34 4.68 0 4 C-0.36351563 4.47050781 -0.72703125 4.94101562 -1.1015625 5.42578125 C-4.33136155 9.42576315 -7.01821956 12.22870029 -12 14 C-12.99 13.67 -13.98 13.34 -15 13 C-14.41992188 12.731875 -13.83984375 12.46375 -13.2421875 12.1875 C-7.76484116 9.43978831 -4.53224192 6.72348398 -1.19140625 1.57421875 C-0.60166016 0.79498047 -0.60166016 0.79498047 0 0 Z " fill="#827E7F" transform="translate(85,341)"/>
<path d="M0 0 C0.66 0.99 1.32 1.98 2 3 C-0.26307691 4.53363072 -2.53416825 6.05184259 -4.8125 7.5625 C-5.45509766 8.00013672 -6.09769531 8.43777344 -6.75976562 8.88867188 C-8.4567518 10.00534154 -10.22577058 11.01064506 -12 12 C-12.99 11.67 -13.98 11.34 -15 11 C-14.67 10.34 -14.34 9.68 -14 9 C-11.4375 8.375 -11.4375 8.375 -9 8 C-8.67 7.01 -8.34 6.02 -8 5 C-6.15234375 3.61328125 -6.15234375 3.61328125 -3.9375 2.3125 C-3.20402344 1.87550781 -2.47054687 1.43851562 -1.71484375 0.98828125 C-1.14894531 0.66214844 -0.58304688 0.33601563 0 0 Z " fill="#78A954" transform="translate(176,295)"/>
<path d="M0 0 C0.33 0 0.66 0 1 0 C1.12117188 0.63808594 1.24234375 1.27617188 1.3671875 1.93359375 C1.53476562 2.75988281 1.70234375 3.58617187 1.875 4.4375 C2.03742188 5.26121094 2.19984375 6.08492187 2.3671875 6.93359375 C2.57601563 7.61550781 2.78484375 8.29742187 3 9 C3.66 9.33 4.32 9.66 5 10 C5.6328125 11.84765625 5.6328125 11.84765625 6.125 14.0625 C6.29257812 14.79597656 6.46015625 15.52945313 6.6328125 16.28515625 C6.75398438 16.85105469 6.87515625 17.41695312 7 18 C5.68 18.33 4.36 18.66 3 19 C0.78796106 13.1151417 -0.94338874 7.34046126 -1 1 C-0.67 0.67 -0.34 0.34 0 0 Z " fill="#C2DE7D" transform="translate(313,47)"/>
<path d="M0 0 C0.66 0.33 1.32 0.66 2 1 C-1.88716547 5.8417061 -5.0772816 9.68241454 -11 12 C-11.94875 12.391875 -12.8975 12.78375 -13.875 13.1875 C-14.57625 13.455625 -15.2775 13.72375 -16 14 C-15.01958581 11.54896452 -14.3486182 10.23241214 -12.125 8.75 C-10 8 -10 8 -6 8 C-5.67 6.68 -5.34 5.36 -5 4 C-4.0409375 3.8453125 -4.0409375 3.8453125 -3.0625 3.6875 C-2.381875 3.460625 -1.70125 3.23375 -1 3 C-0.67 2.01 -0.34 1.02 0 0 Z " fill="#B5CD7B" transform="translate(295,288)"/>
<path d="M0 0 C2.64784346 5.29568692 -1.29313659 14.51365332 -3 20 C-3.66 20 -4.32 20 -5 20 C-4.98839844 19.37351563 -4.97679687 18.74703125 -4.96484375 18.1015625 C-4.95582031 17.28429687 -4.94679688 16.46703125 -4.9375 15.625 C-4.92009766 14.40683594 -4.92009766 14.40683594 -4.90234375 13.1640625 C-4.85533666 10.95062858 -4.85533666 10.95062858 -6 9 C-5.34 8.34 -4.68 7.68 -4 7 C-3.01 7 -2.02 7 -1 7 C-1.020625 6.030625 -1.04125 5.06125 -1.0625 4.0625 C-1 1 -1 1 0 0 Z " fill="#BEE272" transform="translate(326,214)"/>
<path d="M0 0 C3.125 -0.1875 3.125 -0.1875 6 0 C4.68 0.99 3.36 1.98 2 3 C3.36983503 6.16115776 3.9890638 6.9927092 7 9 C7 9.66 7 10.32 7 11 C4.36 10.67 1.72 10.34 -1 10 C-0.67 9.34 -0.34 8.68 0 8 C-0.350625 7.195625 -0.70125 6.39125 -1.0625 5.5625 C-1.371875 4.716875 -1.68125 3.87125 -2 3 C-1.34 2.01 -0.68 1.02 0 0 Z " fill="#3A3836" transform="translate(90,346)"/>
<path d="M0 0 C0.33 0 0.66 0 1 0 C1 1.98 1 3.96 1 6 C1.99 6.33 2.98 6.66 4 7 C3.41734375 7.07089844 2.8346875 7.14179688 2.234375 7.21484375 C-0.81982254 8.28808449 -1.85453711 9.97446413 -3.75 12.5625 C-4.36359375 13.38878906 -4.9771875 14.21507812 -5.609375 15.06640625 C-6.29773438 16.02353516 -6.29773438 16.02353516 -7 17 C-7.33 16.34 -7.66 15.68 -8 15 C-7.22265625 13.2734375 -7.22265625 13.2734375 -6.0625 11.375 C-5.0415625 9.704375 -5.0415625 9.704375 -4 8 C-3.34 8 -2.68 8 -2 8 C-1.7834375 6.576875 -1.7834375 6.576875 -1.5625 5.125 C-1 2 -1 2 0 0 Z " fill="#B1C57E" transform="translate(305,271)"/>
<path d="M0 0 C4.15732561 1.34428493 8.21034052 2.8354167 12.25 4.5 C13.28640625 4.9228125 14.3228125 5.345625 15.390625 5.78125 C18 7 18 7 20 9 C19.01 9.33 18.02 9.66 17 10 C16.67 9.34 16.34 8.68 16 8 C15.01 8.66 14.02 9.32 13 10 C11.5 8.625 11.5 8.625 10 7 C10 6.34 10 5.68 10 5 C8.906875 4.87625 7.81375 4.7525 6.6875 4.625 C3 4 3 4 0 2 C0 1.34 0 0.68 0 0 Z " fill="#8DB953" transform="translate(78,170)"/>
<path d="M0 0 C2.44800876 3.67201314 3.44921696 7.23580454 4.6875 11.4375 C4.92533203 12.20126953 5.16316406 12.96503906 5.40820312 13.75195312 C5.62798828 14.49251953 5.84777344 15.23308594 6.07421875 15.99609375 C6.27619873 16.66825928 6.47817871 17.3404248 6.6862793 18.03295898 C7.04778485 20.29961285 6.6917026 21.83044526 6 24 C4.19769832 20.17010894 3.80377759 17.21878192 4 13 C3.01 12.67 2.02 12.34 1 12 C0.67 8.04 0.34 4.08 0 0 Z " fill="#BBD18C" transform="translate(310,34)"/>
<path d="M0 0 C0.99 0.33 1.98 0.66 3 1 C3 1.99 3 2.98 3 4 C3.680625 4.103125 4.36125 4.20625 5.0625 4.3125 C8.62915989 5.14725019 11.66222194 6.49472754 15 8 C15 8.66 15 9.32 15 10 C15.66 10.33 16.32 10.66 17 11 C13.28583148 10.39428435 10.24664963 9.3527031 6.875 7.6875 C6.02679688 7.27886719 5.17859375 6.87023437 4.3046875 6.44921875 C1.85140874 4.9065638 0.57219045 3.40966444 -1 1 C-0.67 0.67 -0.34 0.34 0 0 Z " fill="#B9D385" transform="translate(202,308)"/>
<path d="M0 0 C0.33 1.32 0.66 2.64 1 4 C3.31 4.33 5.62 4.66 8 5 C6 7 6 7 3.8359375 7.1953125 C2.61777344 7.16050781 2.61777344 7.16050781 1.375 7.125 C0.55773437 7.10695313 -0.25953125 7.08890625 -1.1015625 7.0703125 C-1.72804688 7.04710937 -2.35453125 7.02390625 -3 7 C-3 6.34 -3 5.68 -3 5 C-3.66 4.67 -4.32 4.34 -5 4 C-5 3.34 -5 2.68 -5 2 C-3.35 1.34 -1.7 0.68 0 0 Z " fill="#373434" transform="translate(347,269)"/>
<path d="M0 0 C2 2 2 2 2 6 C2.66 6.33 3.32 6.66 4 7 C3.67 10.63 3.34 14.26 3 18 C0.70366176 14.55549263 0.45983515 12.06187717 0 8 C-0.33 8 -0.66 8 -1 8 C-1.04241723 5.66705225 -1.04092937 3.33297433 -1 1 C-0.67 0.67 -0.34 0.34 0 0 Z " fill="#C0E078" transform="translate(327,111)"/>
<path d="M0 0 C2.3828125 0.0234375 2.3828125 0.0234375 5.125 0.375 C6.03507812 0.48585938 6.94515625 0.59671875 7.8828125 0.7109375 C8.93082031 0.85402344 8.93082031 0.85402344 10 1 C10 1.66 10 2.32 10 3 C14.62 3 19.24 3 24 3 C24 3.33 24 3.66 24 4 C15.03898756 4.21767642 6.7784452 4.04404545 -2 2 C-1.34 1.34 -0.68 0.68 0 0 Z " fill="#544F53" transform="translate(50,366)"/>
<path d="M0 0 C0.33 0 0.66 0 1 0 C0.88521587 2.06309376 0.75773802 4.12548354 0.625 6.1875 C0.55539063 7.33605469 0.48578125 8.48460937 0.4140625 9.66796875 C0.02490426 12.79959117 -0.6809851 15.15285809 -2 18 C-2.99 17.34 -3.98 16.68 -5 16 C-3.35 10.72 -1.7 5.44 0 0 Z " fill="#B4CD78" transform="translate(150,186)"/>
<path d="M0 0 C1.32 0.66 2.64 1.32 4 2 C2.54923295 6.11050664 0.65754275 9.53714127 -2 13 C-2.99 13 -3.98 13 -5 13 C-5 12.34 -5 11.68 -5 11 C-4.34 11 -3.68 11 -3 11 C-2.01 7.37 -1.02 3.74 0 0 Z " fill="#B0D860" transform="translate(164,155)"/>
<path d="M0 0 C2 2 2 2 2.3125 4.875 C1.97113383 8.28866172 1.45178682 9.6390201 -1 12 C-1.99 12 -2.98 12 -4 12 C-4.33 11.01 -4.66 10.02 -5 9 C-4.34 9 -3.68 9 -3 9 C-2.01 6.03 -1.02 3.06 0 0 Z " fill="#BEDF72" transform="translate(317,241)"/>
<path d="M0 0 C5.96652354 1.57013777 10.82909025 4.75029782 16 8 C15.01 8.495 15.01 8.495 14 9 C12.23553844 8.01974358 10.47332936 7.03406055 8.7421875 5.99609375 C6.82121701 4.89778103 5.20708801 4.23647372 3 4 C2.01 4.33 1.02 4.66 0 5 C-0.66 4.34 -1.32 3.68 -2 3 C-1.34 2.34 -0.68 1.68 0 1 C0 0.67 0 0.34 0 0 Z " fill="#9ABC70" transform="translate(117,187)"/>
<path d="M0 0 C0 4.41622382 -0.92206933 7.77834524 -3.875 11.125 C-4.57625 11.74375 -5.2775 12.3625 -6 13 C-7.11375 14.11375 -7.11375 14.11375 -8.25 15.25 C-8.8275 15.8275 -9.405 16.405 -10 17 C-8.68018255 12.31812124 -6.80204328 8.99625079 -3.875 5.125 C-3.15054688 4.15820312 -2.42609375 3.19140625 -1.6796875 2.1953125 C-1.12539062 1.47085938 -0.57109375 0.74640625 0 0 Z " fill="#BACE86" transform="translate(180,127)"/>
<path d="M0 0 C0.99 0.33 1.98 0.66 3 1 C3 1.66 3 2.32 3 3 C8.94 2.505 8.94 2.505 15 2 C12.96180154 4.03819846 11.70582202 4.67841059 9.0625 5.6875 C8.37285156 5.95949219 7.68320313 6.23148437 6.97265625 6.51171875 C5 7 5 7 2 6 C1.01 5.34 0.02 4.68 -1 4 C-0.67 2.68 -0.34 1.36 0 0 Z " fill="#5A4F55" transform="translate(168,306)"/>
<path d="M0 0 C1.32 0.99 2.64 1.98 4 3 C3.9375 4.75 3.9375 4.75 3 7 C0.29950956 9.00840495 -2.55126733 11 -6 11 C-5.67 10.01 -5.34 9.02 -5 8 C-3.35 7.67 -1.7 7.34 0 7 C0 4.69 0 2.38 0 0 Z " fill="#77AD52" transform="translate(153,305)"/>
<path d="M0 0 C1.9375 0.3125 1.9375 0.3125 4 1 C4.33 1.99 4.66 2.98 5 4 C0.58774263 5.47075246 -2.48281619 6.36884358 -7 5 C-6.34 4.34 -5.68 3.68 -5 3 C-3.68 3 -2.36 3 -1 3 C-0.67 2.01 -0.34 1.02 0 0 Z " fill="#4A4544" transform="translate(188,302)"/>
<path d="M0 0 C0.33 0.99 0.66 1.98 1 3 C0.525625 3.45375 0.05125 3.9075 -0.4375 4.375 C-2.09027808 5.93258204 -2.09027808 5.93258204 -3 8 C-5.06640625 8.8515625 -5.06640625 8.8515625 -7.5625 9.625 C-8.38878906 9.88539062 -9.21507812 10.14578125 -10.06640625 10.4140625 C-10.70449219 10.60742188 -11.34257812 10.80078125 -12 11 C-11.34 10.01 -10.68 9.02 -10 8 C-9.34 8 -8.68 8 -8 8 C-8 7.34 -8 6.68 -8 6 C-6.25 4.4921875 -6.25 4.4921875 -4 2.875 C-3.2575 2.33617188 -2.515 1.79734375 -1.75 1.2421875 C-1.1725 0.83226563 -0.595 0.42234375 0 0 Z " fill="#B8D872" transform="translate(216,93)"/>
<path d="M0 0 C5.08746832 1.2209924 8.80681379 2.7053537 13 6 C13.33 6.99 13.66 7.98 14 9 C12.68 8.67 11.36 8.34 10 8 C10 7.01 10 6.02 10 5 C8.9171875 4.814375 8.9171875 4.814375 7.8125 4.625 C5.04278106 4.0095069 2.6029646 3.11555626 0 2 C0 1.34 0 0.68 0 0 Z " fill="#82AA59" transform="translate(129,195)"/>
<path d="M0 0 C3.2910841 3.60957611 4.54663921 6.12637153 5 11 C2.17750049 9.96508351 1.16625774 9.30084735 -0.3125 6.625 C-1.02770914 3.89420147 -0.9659657 2.60810739 0 0 Z " fill="#B8D378" transform="translate(196,298)"/>
<path d="M0 0 C1.53271273 4.58798777 0.02911182 6.77944742 -2 11 C-2.66 11 -3.32 11 -4 11 C-4.66 12.32 -5.32 13.64 -6 15 C-5.39644592 11.14974121 -4.23227397 8.13898841 -2.4375 4.6875 C-1.98246094 3.80449219 -1.52742187 2.92148438 -1.05859375 2.01171875 C-0.53458984 1.01591797 -0.53458984 1.01591797 0 0 Z " fill="#B6D182" transform="translate(163,155)"/>
<path d="M0 0 C0.66 0.33 1.32 0.66 2 1 C2.40729228 3.32156597 2.74438677 5.6568787 3 8 C1.02 8.99 1.02 8.99 -1 10 C-0.67 9.01 -0.34 8.02 0 7 C-1.32 6.34 -2.64 5.68 -4 5 C-2.68 3.35 -1.36 1.7 0 0 Z " fill="#5C595A" transform="translate(354,267)"/>
<path d="M0 0 C0.66 0 1.32 0 2 0 C0.125 5.75 0.125 5.75 -1 8 C-0.34 8.33 0.32 8.66 1 9 C-0.98 9 -2.96 9 -5 9 C-5 8.01 -5 7.02 -5 6 C-4.34 6 -3.68 6 -3 6 C-2.690625 5.38125 -2.38125 4.7625 -2.0625 4.125 C-1.375 2.75 -0.6875 1.375 0 0 Z " fill="#B9CA83" transform="translate(312,262)"/>
<path d="M0 0 C0.66 0 1.32 0 2 0 C4.18994248 3.28491373 4.35277339 4.83095639 4.625 8.6875 C4.69976562 9.68136719 4.77453125 10.67523438 4.8515625 11.69921875 C4.90054688 12.45847656 4.94953125 13.21773438 5 14 C4.34 13.67 3.68 13.34 3 13 C2.37330801 10.83532539 1.84572626 8.64135476 1.375 6.4375 C1.11460938 5.23996094 0.85421875 4.04242188 0.5859375 2.80859375 C0.39257812 1.88175781 0.19921875 0.95492188 0 0 Z " fill="#8EB554" transform="translate(71,263)"/>
<path d="M0 0 C1.32 0.33 2.64 0.66 4 1 C3.67 1.99 3.34 2.98 3 4 C3.99 4.33 4.98 4.66 6 5 C5.67 5.99 5.34 6.98 5 8 C3.35 7.67 1.7 7.34 0 7 C0 4.69 0 2.38 0 0 Z " fill="#333031" transform="translate(30,358)"/>
<path d="M0 0 C0.66 0.33 1.32 0.66 2 1 C1.34 2.98 0.68 4.96 0 7 C-1.65 6.67 -3.3 6.34 -5 6 C-5 5.01 -5 4.02 -5 3 C-2.625 1.25 -2.625 1.25 0 0 Z " fill="#A5D060" transform="translate(188,288)"/>
<path d="M0 0 C1.11375 0.3403125 1.11375 0.3403125 2.25 0.6875 C2.25 1.6775 2.25 2.6675 2.25 3.6875 C3.24 4.3475 4.23 5.0075 5.25 5.6875 C3.27 5.6875 1.29 5.6875 -0.75 5.6875 C-1.08 4.3675 -1.41 3.0475 -1.75 1.6875 C-3.4 2.0175 -5.05 2.3475 -6.75 2.6875 C-4.29511132 0.41445492 -3.41240272 -0.38777304 0 0 Z " fill="#4C494A" transform="translate(348.75,268.3125)"/>
<path d="M0 0 C-2.89818662 2.29158942 -5.83140544 4.07862366 -9.125 5.75 C-9.99382812 6.19859375 -10.86265625 6.6471875 -11.7578125 7.109375 C-12.49773437 7.40328125 -13.23765625 7.6971875 -14 8 C-14.66 7.67 -15.32 7.34 -16 7 C-14.2803109 5.81940783 -12.54880898 4.65601021 -10.8125 3.5 C-9.84957031 2.8503125 -8.88664062 2.200625 -7.89453125 1.53125 C-4.90317208 -0.05122341 -3.31760144 -0.33964475 0 0 Z " fill="#888C81" transform="translate(126,328)"/>
<path d="M0 0 C0.66 0.33 1.32 0.66 2 1 C-2.75 5 -2.75 5 -5 5 C-5 5.66 -5 6.32 -5 7 C-6.96466413 8.06775224 -8.96855359 9.06553465 -11 10 C-11.66 9.67 -12.32 9.34 -13 9 C-8.71 6.03 -4.42 3.06 0 0 Z " fill="#C0D08E" transform="translate(255,63)"/>
<path d="M0 0 C3.94727588 -0.17942163 6.5980513 -0.09350689 10 2 C10 2.66 10 3.32 10 4 C6.7 3.67 3.4 3.34 0 3 C0 2.01 0 1.02 0 0 Z " fill="#454344" transform="translate(36,363)"/>
<path d="M0 0 C-2.64 1.65 -5.28 3.3 -8 5 C-8.33 4.34 -8.66 3.68 -9 3 C-9.66 2.67 -10.32 2.34 -11 2 C-3.32926829 -1.1097561 -3.32926829 -1.1097561 0 0 Z " fill="#5B5859" transform="translate(135,334)"/>
<path d="M0 0 C3.27275026 0 5.846632 0.29925156 9 1 C7.875 2.5 7.875 2.5 6 4 C2.9375 4.3125 2.9375 4.3125 0 4 C-0.66 3.34 -1.32 2.68 -2 2 C-1.34 1.34 -0.68 0.68 0 0 Z " fill="#39352E" transform="translate(125,331)"/>
<path d="M0 0 C0.33 0.66 0.66 1.32 1 2 C1.99 2.66 2.98 3.32 4 4 C2.02 4.99 0.04 5.98 -2 7 C-2.66 5.02 -3.32 3.04 -4 1 C-2 0 -2 0 0 0 Z " fill="#528C3A" transform="translate(159,304)"/>
<path d="M0 0 C2.64662605 0.15123577 4.44278494 0.50001243 6.4453125 2.296875 C10 6.4 10 6.4 10 10 C9.01 9.67 8.02 9.34 7 9 C7 8.34 7 7.68 7 7 C6.34565884 3.90403542 6.34565884 3.90403542 4.0625 2.9375 C3.381875 2.628125 2.70125 2.31875 2 2 C1.34 1.34 0.68 0.68 0 0 Z " fill="#88A459" transform="translate(186,295)"/>
<path d="M0 0 C0.75 1.5625 0.75 1.5625 1 4 C0.06440845 5.77439776 -0.88089713 7.54731407 -1.94140625 9.25 C-3.24460162 11.40435987 -4.14103394 13.63784334 -5 16 C-6 14 -6 14 -5.29296875 11.7578125 C-4.92816406 10.88898438 -4.56335938 10.02015625 -4.1875 9.125 C-3.83042969 8.26132813 -3.47335938 7.39765625 -3.10546875 6.5078125 C-2.13241023 4.3003794 -1.10249038 2.14511702 0 0 Z " fill="#A7D858" transform="translate(222,236)"/>
<path d="M0 0 C2 3.75 2 3.75 2 6 C-0.60582371 6.93065133 -1.64198224 7.14917407 -4.25 6.0625 C-4.8275 5.711875 -5.405 5.36125 -6 5 C-2.25 2 -2.25 2 0 2 C0 1.34 0 0.68 0 0 Z " fill="#BDE66D" transform="translate(270,56)"/>
<path d="M0 0 C0.66 0 1.32 0 2 0 C2.33 1.32 2.66 2.64 3 4 C4.98 3.67 6.96 3.34 9 3 C5.93882432 5.62386487 5.26826873 6 1 6 C0.34 4.35 -0.32 2.7 -1 1 C-0.67 0.67 -0.34 0.34 0 0 Z " fill="#8D898A" transform="translate(85,341)"/>
<path d="M0 0 C0.33 0.66 0.66 1.32 1 2 C3.3140622 2.73075648 5.64828869 3.40138258 8 4 C7.67 4.66 7.34 5.32 7 6 C5.35153231 5.55123384 3.70626545 5.09069512 2.0625 4.625 C1.14597656 4.36976563 0.22945313 4.11453125 -0.71484375 3.8515625 C-3 3 -3 3 -4 1 C-2.68 0.67 -1.36 0.34 0 0 Z " fill="#86B54E" transform="translate(115,321)"/>
<path d="M0 0 C0.33 0.99 0.66 1.98 1 3 C0.360625 3.12375 -0.27875 3.2475 -0.9375 3.375 C-1.618125 3.58125 -2.29875 3.7875 -3 4 C-3.33 4.66 -3.66 5.32 -4 6 C-5.32 5.34 -6.64 4.68 -8 4 C-2.25 0 -2.25 0 0 0 Z " fill="#3A3436" transform="translate(357,264)"/>
<path d="M0 0 C0.66 0 1.32 0 2 0 C2.144375 1.2375 2.28875 2.475 2.4375 3.75 C2.78688502 6.56504499 3.20379366 9.2701497 4 12 C3.01 12.495 3.01 12.495 2 13 C0.24252386 8.49646738 -0.19294408 4.82360189 0 0 Z " fill="#9DD453" transform="translate(146,240)"/>
<path d="M0 0 C0.99 0.33 1.98 0.66 3 1 C2.40049704 4.68266103 1.75241109 8.34543185 1 12 C0.34 11.67 -0.32 11.34 -1 11 C-0.67 7.37 -0.34 3.74 0 0 Z " fill="#8DC34B" transform="translate(70,169)"/>
<path d="M0 0 C0.99 0.33 1.98 0.66 3 1 C2.67 1.99 2.34 2.98 2 4 C-0.5625 5.1875 -0.5625 5.1875 -3 6 C-3.33 5.01 -3.66 4.02 -4 3 C-2.1875 1.4375 -2.1875 1.4375 0 0 Z " fill="#544043" transform="translate(360,260)"/>
<path d="M0 0 C0.66 0.33 1.32 0.66 2 1 C-2.455 4.465 -2.455 4.465 -7 8 C-7.66 7.67 -8.32 7.34 -9 7 C-8.01 6.67 -7.02 6.34 -6 6 C-5.67 5.01 -5.34 4.02 -5 3 C-2.5625 1.25 -2.5625 1.25 0 0 Z " fill="#ACC47A" transform="translate(285,298)"/>
<path d="M0 0 C0.5775 0.37125 1.155 0.7425 1.75 1.125 C-1.58333333 2.45833333 -4.91666667 3.79166667 -8.25 5.125 C-7.26858061 2.67145152 -6.52754408 1.32853232 -4.375 -0.25 C-2.25 -0.875 -2.25 -0.875 0 0 Z " fill="#BCDC7B" transform="translate(287.25,296.875)"/>
<path d="M0 0 C0.66 0.33 1.32 0.66 2 1 C-0.625 6.75 -0.625 6.75 -4 9 C-2.94124926 5.59687262 -1.99097846 2.98646769 0 0 Z " fill="#BED487" transform="translate(301,279)"/>
<path d="M0 0 C0.99 0.33 1.98 0.66 3 1 C3.33 1.99 3.66 2.98 4 4 C2.68 4.99 1.36 5.98 0 7 C-0.38133299 5.0085944 -0.71325582 3.00720923 -1 1 C-0.67 0.67 -0.34 0.34 0 0 Z " fill="#B2D95D" transform="translate(187,120)"/>
<path d="M0 0 C0.66 0 1.32 0 2 0 C1.67 2.64 1.34 5.28 1 8 C0.67 7.34 0.34 6.68 0 6 C-0.99 5.67 -1.98 5.34 -3 5 C-1.625 2.5 -1.625 2.5 0 0 Z " fill="#373635" transform="translate(110,336)"/>
<path d="M0 0 C1.32 0.66 2.64 1.32 4 2 C4 2.66 4 3.32 4 4 C1.69 4.33 -0.62 4.66 -3 5 C-2.67 4.01 -2.34 3.02 -2 2 C-1.34 2 -0.68 2 0 2 C0 1.34 0 0.68 0 0 Z " fill="#B0D95B" transform="translate(220,312)"/>
<path d="M0 0 C1.58502671 3.17005342 1.60385067 6.49124878 2 10 C1.34 10 0.68 10 0 10 C-2.21538462 4.58461538 -2.21538462 4.58461538 -1.125 1.625 C-0.75375 1.08875 -0.3825 0.5525 0 0 Z " fill="#8CBC4D" transform="translate(78,274)"/>
<path d="M0 0 C0.99 0.33 1.98 0.66 3 1 C3 1.99 3 2.98 3 4 C3.99 4 4.98 4 6 4 C6 4.66 6 5.32 6 6 C2.34683329 4.75023244 1.21934164 4.32901247 -1 1 C-0.67 0.67 -0.34 0.34 0 0 Z " fill="#C2D892" transform="translate(202,308)"/>
<path d="M0 0 C-0.66 1.32 -1.32 2.64 -2 4 C-3.65 4 -5.3 4 -7 4 C-7 3.01 -7 2.02 -7 1 C-4.53721199 -0.231394 -2.7204945 -0.07159196 0 0 Z " fill="#332F30" transform="translate(322,273)"/>
<path d="M0 0 C0.33 0 0.66 0 1 0 C1 1.65 1 3.3 1 5 C1.66 5 2.32 5 3 5 C3 5.66 3 6.32 3 7 C2.34 7 1.68 7 1 7 C0.67 8.32 0.34 9.64 0 11 C-1.28571429 3.57142857 -1.28571429 3.57142857 0 0 Z " fill="#BFE46F" transform="translate(331,149)"/>
<path d="M0 0 C0 0.66 0 1.32 0 2 C-0.99 2 -1.98 2 -3 2 C-3 2.66 -3 3.32 -3 4 C-4.65 4 -6.3 4 -8 4 C-6 1 -6 1 -4 0.3125 C-2 0 -2 0 0 0 Z " fill="#BBD47F" transform="translate(246,72)"/>
</svg>
